<svg width="44" height="166" viewBox="0 0 44 166" fill="none" xmlns="http://www.w3.org/2000/svg">
<path d="M21 26L22 165" stroke="#55794F" stroke-linecap="round" stroke-linejoin="round"/>
<path d="M9.86817 7.00064C14.0654 -3.35041 24.8305 2.68771 29.6884 7.00064C34.4643 9.19148 41.3837 14.584 42.7577 22.5981C43.4521 26.6486 42.73 31.3688 39.5985 36.6838C27.9396 56.4726 32.0202 44.2949 19.7783 52.667C12.0154 57.9761 10.1128 51.0429 8.12461 43.5123C6.97749 39.1673 5.80188 34.6234 3.45574 32.1172C-2.95669 25.2672 4.62164 19.9395 9.86817 7.00064Z" fill="#EE8E48"/>
<path d="M42.7577 22.5981C39.4543 26.1499 30.6211 32.726 22.693 29.0727C14.7649 25.4194 9.67387 37.1912 8.11934 43.5338M29.6884 7.00064C24.8305 2.68771 14.0654 -3.35041 9.86817 7.00064C4.62164 19.9395 -2.95669 25.2672 3.45574 32.1172C9.86817 38.9671 7.53639 61.0392 19.7783 52.667C32.0202 44.2949 27.9396 56.4726 39.5985 36.6838C48.9257 20.8528 36.8781 10.2988 29.6884 7.00064Z" stroke="#AF5E24" stroke-width="0.5" stroke-linecap="round" stroke-linejoin="round"/>
<path d="M29.7715 26.7894C29.7715 28.6533 28.5452 30.2327 26.8296 31.3745C25.1167 32.5145 23.0256 33.1394 21.5272 33.1394C20.1056 33.1394 18.7842 32.3883 17.8021 31.1061C16.8197 29.8235 16.1978 28.0299 16.1978 26.0283C16.1978 24.0268 16.8197 22.2332 17.8021 20.9505C18.7842 19.6683 20.1056 18.9173 21.5272 18.9173C22.9651 18.9173 25.0375 19.8742 26.7766 21.4026C28.513 22.9287 29.7715 24.8963 29.7715 26.7894Z" fill="#262925" stroke="#191A18"/>
<path d="M26.1497 26.7824C26.1497 27.6049 25.6304 28.3281 24.8457 28.8721C24.0603 29.4166 23.1087 29.7073 22.4524 29.7073C21.8767 29.7073 21.3138 29.391 20.8767 28.7965C20.4397 28.2023 20.1543 27.3572 20.1543 26.4018C20.1543 25.4464 20.4397 24.6014 20.8767 24.0071C21.3138 23.4126 21.8767 23.0963 22.4524 23.0963C23.0462 23.0963 23.9794 23.5252 24.7929 24.27C25.6004 25.0092 26.1497 25.9319 26.1497 26.7824Z" fill="#A78268" stroke="#76563F"/>
<path fill-rule="evenodd" clip-rule="evenodd" d="M39.5985 36.6838C42.73 31.3688 43.4521 26.6486 42.7577 22.5981C39.4543 26.1499 30.6211 32.726 22.693 29.0727C18.455 27.1198 15.0277 29.5747 12.5179 33.2518C10.3379 36.4457 8.8501 40.5617 8.12461 43.5123C10.1128 51.0429 12.0154 57.9761 19.7783 52.667C24.4992 49.4384 26.7927 49.2659 28.4976 49.1376C31.2136 48.9333 32.4357 48.8414 39.5985 36.6838Z" fill="#E37526"/>
<path d="M29.6884 7.00064C24.8305 2.68771 14.0654 -3.35041 9.86817 7.00064C4.62164 19.9395 -2.95669 25.2672 3.45574 32.1172C5.80188 34.6234 6.97749 39.1673 8.12461 43.5123M29.6884 7.00064C36.8781 10.2988 48.9257 20.8528 39.5985 36.6838M29.6884 7.00064C34.4643 9.19148 41.3837 14.584 42.7577 22.5981M39.5985 36.6838C42.73 31.3688 43.4521 26.6486 42.7577 22.5981M39.5985 36.6838C32.4357 48.8414 31.2136 48.9333 28.4976 49.1376C26.7927 49.2659 24.4992 49.4384 19.7783 52.667C12.0154 57.9761 10.1128 51.0429 8.12461 43.5123M42.7577 22.5981C39.4543 26.1499 30.6211 32.726 22.693 29.0727C18.455 27.1198 15.0277 29.5747 12.5179 33.2518C10.3379 36.4457 8.8501 40.5617 8.12461 43.5123M8.11934 43.5338C8.12109 43.5266 8.12285 43.5194 8.12461 43.5123" stroke="#AF5E24" stroke-width="0.5" stroke-linecap="round" stroke-linejoin="round"/>
</svg>
