<svg width="43" height="171" viewBox="0 0 43 171" fill="none" xmlns="http://www.w3.org/2000/svg">
<path d="M14.9999 48L13.9999 170" stroke="#55794F" stroke-linecap="round" stroke-linejoin="round"/>
<path d="M4.46905 6.92193C23.5611 -7.85697 40.117 8.81906 42.5678 15.9333C41.4204 14.9313 39.3571 14.1872 36.5522 14.6918C32.5423 17.3561 26.5267 25.8932 25.8582 39.1731C25.5934 44.4335 22.2877 58.1443 9.14833 54.3501C6.47473 53.5912 6.69753 50.872 7.14313 49.6073C7.14313 49.6073 7.58302 47.3522 9.05901 44.3902C9.84141 38.4791 4.6511 31.067 3.36121 28.5926C-1.00294 20.7727 -0.562264 10.8166 4.46905 6.92193Z" fill="#FFFAED"/>
<path d="M13.8266 37.7208C16.0094 35.5399 16.9167 32.4165 19.1738 29.2132C26.2776 19.1318 32.2765 15.4611 36.5522 14.6918M13.8266 37.7208C9.74717 35.8273 5.37451 32.2002 3.36121 28.5926M13.8266 37.7208C8.40517 43.1375 7.14313 49.6073 7.14313 49.6073C6.69753 50.872 6.47473 53.5912 9.14833 54.3501C22.2877 58.1443 25.5934 44.4335 25.8582 39.1731C26.5267 25.8932 32.5423 17.3561 36.5522 14.6918M36.5522 14.6918C39.3571 14.1872 41.4204 14.9313 42.5678 15.9333C40.117 8.81906 23.5611 -7.85697 4.46905 6.92193C-0.562264 10.8166 -1.00294 20.7727 3.36121 28.5926M3.36121 28.5926C4.6511 31.067 9.84141 38.4791 9.05901 44.3902" stroke="#758672" stroke-width="0.5" stroke-linecap="round" stroke-linejoin="round"/>
<path d="M17.7614 22.9211C18.2365 27.349 16.376 39.8095 15.3863 45.4863C14.1988 50.0278 11.7049 56.3857 11.2299 45.4863C10.7549 34.5869 12.6154 25.9014 13.605 22.9211C14.5098 20.1964 17.2864 18.4932 17.7614 22.9211Z" fill="#F5CF6C" stroke="#EEB648" stroke-linecap="round" stroke-linejoin="round"/>
<path fill-rule="evenodd" clip-rule="evenodd" d="M13.8266 37.7208C9.74717 35.8273 5.37451 32.2002 3.36121 28.5926C3.57285 28.9986 3.88949 29.5375 4.26752 30.1809C6.19351 33.4589 9.71303 39.449 9.05901 44.3902C7.58302 47.3522 7.14313 49.6073 7.14313 49.6073C6.69753 50.872 6.47473 53.5912 9.14833 54.3501C22.2877 58.1443 25.5934 44.4335 25.8582 39.1731C26.5267 25.8932 32.5423 17.3561 36.5522 14.6918C32.2765 15.4611 26.2776 19.1318 19.1738 29.2132C18.2169 30.5712 17.5026 31.9149 16.8309 33.1785C15.9182 34.8954 15.084 36.4645 13.8266 37.7208Z" fill="#EDF5D7"/>
<path d="M13.8266 37.7208C9.74717 35.8273 5.37451 32.2002 3.36121 28.5926M13.8266 37.7208C8.40517 43.1375 7.14313 49.6073 7.14313 49.6073M13.8266 37.7208C15.084 36.4645 15.9182 34.8954 16.8309 33.1785C17.5026 31.9149 18.2169 30.5712 19.1738 29.2132C26.2776 19.1318 32.2765 15.4611 36.5522 14.6918M36.5522 14.6918C39.3571 14.1872 41.4204 14.9313 42.5678 15.9333C40.117 8.81906 23.5611 -7.85697 4.46905 6.92193C-0.562264 10.8166 -1.00294 20.7727 3.36121 28.5926M36.5522 14.6918C32.5423 17.3561 26.5267 25.8932 25.8582 39.1731C25.5934 44.4335 22.2877 58.1443 9.14833 54.3501C6.47473 53.5912 6.69753 50.872 7.14313 49.6073M3.36121 28.5926C3.57285 28.9986 3.88949 29.5375 4.26752 30.1809C6.19351 33.4589 9.71303 39.449 9.05901 44.3902C7.58302 47.3522 7.14313 49.6073 7.14313 49.6073" stroke="#758672" stroke-width="0.5" stroke-linecap="round" stroke-linejoin="round"/>
</svg>
