<svg width="176" height="170" viewBox="0 0 176 170" fill="none" xmlns="http://www.w3.org/2000/svg">
<g filter="url(#filter0_d_250_1044)">
<path d="M171.279 13.7907L166.137 15.55L87.1687 42.5698C107.872 49.8507 130.059 55.2234 151.55 56.202C164.34 37.0159 171.279 20.1861 171.279 13.7907Z" fill="#B1A2C0" stroke="#42364E" stroke-linecap="round" stroke-linejoin="round"/>
<path d="M5 1C31.1763 19.454 98.5208 56.3621 158.488 56.3621L69.251 108.264L101.376 153.246C64.2537 169.854 35.9356 155.553 26.417 146.326L69.251 108.264L37.1255 54.632L5 1Z" fill="#805CA5"/>
<path d="M69.251 108.264L158.488 56.3621C98.5208 56.3621 31.1763 19.454 5 1L37.1255 54.632L69.251 108.264ZM69.251 108.264L26.417 146.326C35.9356 155.553 64.2537 169.854 101.376 153.246L69.251 108.264Z" stroke="#42364E" stroke-linecap="round" stroke-linejoin="round"/>
</g>
<defs>
<filter id="filter0_d_250_1044" x="0.5" y="0.5" width="175.279" height="168.884" filterUnits="userSpaceOnUse" color-interpolation-filters="sRGB">
<feFlood flood-opacity="0" result="BackgroundImageFix"/>
<feColorMatrix in="SourceAlpha" type="matrix" values="0 0 0 0 0 0 0 0 0 0 0 0 0 0 0 0 0 0 127 0" result="hardAlpha"/>
<feOffset dy="4"/>
<feGaussianBlur stdDeviation="2"/>
<feComposite in2="hardAlpha" operator="out"/>
<feColorMatrix type="matrix" values="0 0 0 0 0 0 0 0 0 0 0 0 0 0 0 0 0 0 0.25 0"/>
<feBlend mode="normal" in2="BackgroundImageFix" result="effect1_dropShadow_250_1044"/>
<feBlend mode="normal" in="SourceGraphic" in2="effect1_dropShadow_250_1044" result="shape"/>
</filter>
</defs>
</svg>
