<svg width="168" height="231" viewBox="0 0 168 231" fill="none" xmlns="http://www.w3.org/2000/svg">
<path d="M82.4902 112.919L161.459 85.8988L99.4494 1L6 75.2092C22.9576 86.3643 51.009 101.847 82.4902 112.919Z" fill="#B1A2C0" stroke="#42364E" stroke-linecap="round" stroke-linejoin="round"/>
<path d="M116.964 53.6571C141.419 59.6236 152.396 77.7884 155.077 87.7325L82.5774 112.733C55.0774 103.233 40.5774 94.7325 15.5774 80.9252C9.68896 77.6731 50.2857 41.0612 74.0612 40.2325C78.1728 42.2214 92.5096 47.6906 116.964 53.6571Z" fill="#758672"/>
<path d="M166.93 83.2892L161.788 85.0485L82.8197 112.068C103.523 119.349 125.71 124.722 147.201 125.7C159.991 106.514 166.93 89.6845 166.93 83.2892Z" fill="#B1A2C0" stroke="#42364E" stroke-linecap="round" stroke-linejoin="round"/>
<path d="M0.651123 70.4985C26.8274 88.9525 94.172 125.861 154.14 125.861L64.9021 177.763L97.0275 222.744C59.9048 239.353 31.5868 225.051 22.0681 215.824L64.9021 177.763L32.7766 124.131L0.651123 70.4985Z" fill="#805CA5"/>
<path d="M64.9021 177.763L154.14 125.861C94.172 125.861 26.8274 88.9525 0.651123 70.4985L32.7766 124.131L64.9021 177.763ZM64.9021 177.763L22.0681 215.824C31.5868 225.051 59.9048 239.353 97.0275 222.744L64.9021 177.763Z" stroke="#42364E" stroke-linecap="round" stroke-linejoin="round"/>
<path d="M66.655 175.914C59.2798 173.501 43.1545 171.183 37.6544 181.215C32.1542 191.246 54.6964 181.861 66.655 175.914ZM66.655 175.914C74.1916 174.066 90.4461 172.976 95.1712 183.395C99.8963 193.814 78.1292 182.749 66.655 175.914ZM66.655 175.914C60.214 187.355 44.6461 209.254 33.902 205.323M66.655 175.914C66.5686 186.634 69.0098 208.42 79.4655 209.808" stroke="#B1A2C0" stroke-width="0.1" stroke-linecap="round" stroke-linejoin="round"/>
<path d="M66.4596 176.35C59.4035 173.121 43.6422 169 37.0463 178.348C30.4503 187.695 53.9068 180.911 66.4596 176.35ZM66.4596 176.35C74.1565 175.364 90.4303 176.113 93.9507 186.998C97.4711 197.883 77.0901 184.435 66.4596 176.35ZM66.4596 176.35C58.7699 186.992 40.8325 206.996 30.5999 201.88M66.4596 176.35C65.1653 186.992 65.1348 208.915 75.3674 211.473" stroke="#42364E" stroke-width="0.5" stroke-linecap="round" stroke-linejoin="round"/>
</svg>
