<svg width="170" height="231" viewBox="0 0 170 231" fill="none" xmlns="http://www.w3.org/2000/svg">
<path d="M66.462 91.7505C100.531 58.1317 121.038 42.8504 153.262 42.8504C92.3285 -32.9447 26.3168 11.2691 0.927734 42.8504C17.2751 59.1504 53.2684 91.7505 66.462 91.7505Z" fill="#CF83B1" stroke="#A56A8D" stroke-linecap="round" stroke-linejoin="round"/>
<path d="M66.1762 92.2325C54.4252 89.0659 29.7798 80.7326 12.3388 54.7326C-9.46238 22.2326 53.8426 35.0301 71.7123 51.7326C82.4 61.7222 69.913 16.327 127.226 47.1362C127.29 47.1638 127.35 47.1959 127.405 47.2326C127.345 47.2004 127.286 47.1683 127.226 47.1362C121.712 44.7613 84.3648 76.0865 66.1762 92.2325Z" fill="#738D6F"/>
<path d="M57.7553 168.921C57.7553 168.921 139.796 154.279 148 43C117.918 43 98.7756 57.642 66.9722 89.8544C46.8166 110.269 30.4084 116.21 8.53096 122.067C12.8296 133.575 30.4085 163.064 44.0819 168.921C45.945 169.667 51.288 170.712 57.7553 168.921Z" fill="#ECB8D7"/>
<path d="M5.79628 43C3.0616 89.8544 3.06162 107.425 8.53096 122.067C30.4084 116.21 46.8166 110.269 66.9722 89.8544C54.656 89.8544 21.0565 58.6181 5.79628 43Z" fill="#ECB8D7"/>
<path fill-rule="evenodd" clip-rule="evenodd" d="M44.0819 168.921C38.6125 181.611 30.1167 201.256 16.9902 208.284C0.582092 217.069 74.1635 227.489 76.8981 215.776C79.6328 204.062 57.7553 168.921 57.7553 168.921C57.7553 168.921 139.796 154.279 148 43C117.918 43 98.7756 57.642 66.9722 89.8544C54.656 89.8544 21.0565 58.6181 5.79628 43C3.0616 89.8544 3.06162 107.425 8.53096 122.067C12.8296 133.575 30.4085 163.064 44.0819 168.921Z" fill="#ECB8D7"/>
<path d="M44.0819 168.921C30.4085 163.064 12.8296 133.575 8.53096 122.067M44.0819 168.921C45.945 169.667 51.288 170.712 57.7553 168.921M44.0819 168.921C38.6125 181.611 30.1167 201.256 16.9902 208.284C0.582092 217.069 74.1635 227.489 76.8981 215.776C79.6328 204.062 57.7553 168.921 57.7553 168.921M44.0819 168.921C46.378 169.525 52.3272 170.37 57.7553 168.921M57.7553 168.921C57.7553 168.921 139.796 154.279 148 43C117.918 43 98.7756 57.642 66.9722 89.8544M8.53096 122.067C3.06162 107.425 3.0616 89.8544 5.79628 43C21.0565 58.6181 54.656 89.8544 66.9722 89.8544M8.53096 122.067C30.4084 116.21 46.8166 110.269 66.9722 89.8544" stroke="#A56A8D" stroke-linecap="round" stroke-linejoin="round"/>
</svg>
