<svg width="53" height="47" viewBox="0 0 53 47" fill="none" xmlns="http://www.w3.org/2000/svg">
<path d="M29.0971 6.52156C27.712 4.06499 26.2115 5.49799 25.6344 6.52156C24.2493 8.97814 25.0573 14.7102 25.6344 17.2691H29.0971C29.6742 14.7102 30.4822 8.97814 29.0971 6.52156Z" fill="#DEC585" stroke="#76563F" stroke-width="0.5" stroke-linecap="round" stroke-linejoin="round"/>
<path d="M15.0518 10.4088C12.1136 9.54023 12.1952 11.4944 12.6033 12.5801C13.5827 15.1857 18.7246 18.7322 21.1731 20.1797L23.6216 18.0084C21.9893 15.8371 17.99 11.2773 15.0518 10.4088Z" fill="#DEC585" stroke="#76563F" stroke-width="0.5" stroke-linecap="round" stroke-linejoin="round"/>
<path d="M8.21975 21.9646C5.44956 23.1929 7.0655 24.5236 8.21975 25.0354C10.9899 26.2637 17.4537 25.5471 20.3393 25.0353L20.3393 21.9646C17.4537 21.4529 10.9899 20.7364 8.21975 21.9646Z" fill="#DEC585" stroke="#76563F" stroke-width="0.5" stroke-linecap="round" stroke-linejoin="round"/>
<path d="M12.6033 34.4199C11.6238 37.0255 13.8275 36.9531 15.0518 36.5912C17.99 35.7227 21.9892 31.1629 23.6216 28.9916L21.1731 26.8203C18.7246 28.2678 13.5827 31.8143 12.6033 34.4199Z" fill="#DEC585" stroke="#76563F" stroke-width="0.5" stroke-linecap="round" stroke-linejoin="round"/>
<path d="M29.0971 40.4784C27.712 42.935 26.2115 41.502 25.6344 40.4784C24.2493 38.0219 25.0573 32.2898 25.6344 29.7309H29.0971C29.6742 32.2898 30.4822 38.0219 29.0971 40.4784Z" fill="#DEC585" stroke="#76563F" stroke-width="0.5" stroke-linecap="round" stroke-linejoin="round"/>
<path d="M42.1282 34.4199C43.1076 37.0255 40.9039 36.9531 39.6797 36.5912C36.7415 35.7227 32.7422 31.1629 31.1099 28.9916L33.5584 26.8203C36.0069 28.2678 41.1488 31.8143 42.1282 34.4199Z" fill="#DEC585" stroke="#76563F" stroke-width="0.5" stroke-linecap="round" stroke-linejoin="round"/>
<path d="M46.5117 21.9646C49.2819 23.1929 47.6659 24.5236 46.5117 25.0354C43.7415 26.2637 37.2778 25.5471 34.3921 25.0354L34.3921 21.9646C37.2778 21.4529 43.7415 20.7364 46.5117 21.9646Z" fill="#DEC585" stroke="#76563F" stroke-width="0.5" stroke-linecap="round" stroke-linejoin="round"/>
<path d="M39.6796 10.4088C42.6179 9.54023 42.5362 11.4944 42.1281 12.5801C41.1487 15.1857 36.0068 18.7322 33.5583 20.1797L31.1098 18.0084C32.7422 15.8371 36.7414 11.2773 39.6796 10.4088Z" fill="#DEC585" stroke="#76563F" stroke-width="0.5" stroke-linecap="round" stroke-linejoin="round"/>
<path d="M21.4209 7.0155C19.1879 5.07025 18.4205 6.85035 18.316 7.98356C18.0651 10.7033 21.102 15.9198 22.6518 18.1881L25.7567 17.2201C25.2419 14.6291 23.6539 8.96075 21.4209 7.0155Z" fill="#E8CD88" stroke="#76563F" stroke-width="0.5" stroke-linecap="round" stroke-linejoin="round"/>
<path d="M9.77422 14.9264C6.68891 14.9233 7.57942 16.7052 8.41035 17.5966C10.4046 19.7359 16.6489 21.6123 19.5218 22.2831L20.8857 19.613C18.4674 18.0521 12.8595 14.9296 9.77422 14.9264Z" fill="#E8CD88" stroke="#76563F" stroke-width="0.5" stroke-linecap="round" stroke-linejoin="round"/>
<path d="M7.92258 27.7243C5.86205 29.7329 7.91986 30.5729 9.20633 30.7419C12.2939 31.1474 18.0004 28.573 20.4677 27.2351L19.184 24.2175C16.2887 24.5495 9.98311 25.7157 7.92258 27.7243Z" fill="#E8CD88" stroke="#76563F" stroke-width="0.5" stroke-linecap="round" stroke-linejoin="round"/>
<path d="M16.848 38.1512C17.0329 40.9056 19.1137 40.2192 20.1311 39.5317C22.5727 37.8816 24.4394 32.421 25.0676 29.8969L21.7845 28.5165C20.062 30.5804 16.6631 35.3968 16.848 38.1512Z" fill="#E8CD88" stroke="#76563F" stroke-width="0.5" stroke-linecap="round" stroke-linejoin="round"/>
<path d="M34.6841 39.0165C34.4332 41.7362 32.5096 40.795 31.5792 39.9845C29.3462 38.0393 27.7582 32.3709 27.2434 29.7799L30.3483 28.8119C31.8981 31.0802 34.935 36.2968 34.6841 39.0165Z" fill="#E8CD88" stroke="#76563F" stroke-width="0.5" stroke-linecap="round" stroke-linejoin="round"/>
<path d="M44.5897 29.4034C46.5839 31.5427 44.5113 32.0749 43.2258 32.0736C40.1405 32.0705 34.5326 28.9479 32.1143 27.3871L33.4782 24.7169C36.3511 25.3877 42.5955 27.2642 44.5897 29.4034Z" fill="#E8CD88" stroke="#76563F" stroke-width="0.5" stroke-linecap="round" stroke-linejoin="round"/>
<path d="M43.7937 16.2581C46.8812 16.6636 45.936 18.4388 45.0774 19.2757C43.0169 21.2843 36.7113 22.4505 33.8161 22.7825L32.5323 19.7649C34.9996 18.427 40.7062 15.8526 43.7937 16.2581Z" fill="#E8CD88" stroke="#76563F" stroke-width="0.5" stroke-linecap="round" stroke-linejoin="round"/>
<path d="M32.8688 7.46839C35.3104 5.81834 36.0748 7.70116 36.1519 8.84882C36.3368 11.6032 32.9378 16.4196 31.2153 18.4835L27.9322 17.1031C28.5604 14.579 30.4272 9.11843 32.8688 7.46839Z" fill="#E8CD88" stroke="#76563F" stroke-width="0.5" stroke-linecap="round" stroke-linejoin="round"/>
<path d="M35.1808 23.2824C35.1808 27.3567 31.446 30.7092 26.774 30.7092C22.102 30.7092 18.3672 27.3567 18.3672 23.2824C18.3672 19.2081 22.102 15.8556 26.774 15.8556C31.446 15.8556 35.1808 19.2081 35.1808 23.2824Z" fill="#76563F" stroke="#76563F" stroke-width="0.5"/>
<path d="M32.9313 23.2005C32.9313 26.1602 30.2154 28.6091 26.8002 28.6091C23.3851 28.6091 20.6692 26.1602 20.6692 23.2005C20.6692 20.2407 23.3851 17.7918 26.8002 17.7918C30.2154 17.7918 32.9313 20.2407 32.9313 23.2005Z" fill="#A78268" stroke="#76563F" stroke-width="0.5"/>
</svg>
