<svg width="53" height="132" viewBox="0 0 53 132" fill="none" xmlns="http://www.w3.org/2000/svg">
<path d="M26.9739 23.0824L27.9739 131.082" stroke="#55794F" stroke-linecap="round" stroke-linejoin="round"/>
<path d="M29.0709 6.60396C27.6858 4.14739 26.1853 5.58039 25.6082 6.60396C24.2231 9.06054 25.0311 14.7926 25.6082 17.3515H29.0709C29.648 14.7926 30.456 9.06054 29.0709 6.60396Z" fill="#DEC585" stroke="#76563F" stroke-width="0.5" stroke-linecap="round" stroke-linejoin="round"/>
<path d="M15.0257 10.4912C12.0875 9.62263 12.1691 11.5768 12.5772 12.6625C13.5566 15.2681 18.6985 18.8146 21.147 20.2621L23.5955 18.0908C21.9632 15.9195 17.9639 11.3597 15.0257 10.4912Z" fill="#DEC585" stroke="#76563F" stroke-width="0.5" stroke-linecap="round" stroke-linejoin="round"/>
<path d="M8.19362 22.047C5.42344 23.2753 7.03938 24.606 8.19362 25.1178C10.9638 26.3461 17.4276 25.6295 20.3132 25.1177L20.3132 22.047C17.4276 21.5353 10.9638 20.8188 8.19362 22.047Z" fill="#DEC585" stroke="#76563F" stroke-width="0.5" stroke-linecap="round" stroke-linejoin="round"/>
<path d="M12.5771 34.5023C11.5977 37.1079 13.8014 37.0355 15.0256 36.6737C17.9639 35.8051 21.9631 31.2453 23.5955 29.074L21.1469 26.9027C18.6984 28.3502 13.5565 31.8967 12.5771 34.5023Z" fill="#DEC585" stroke="#76563F" stroke-width="0.5" stroke-linecap="round" stroke-linejoin="round"/>
<path d="M29.0709 40.5609C27.6858 43.0174 26.1853 41.5844 25.6082 40.5609C24.2231 38.1043 25.0311 32.3723 25.6082 29.8133H29.0709C29.648 32.3723 30.456 38.1043 29.0709 40.5609Z" fill="#DEC585" stroke="#76563F" stroke-width="0.5" stroke-linecap="round" stroke-linejoin="round"/>
<path d="M42.1019 34.5023C43.0814 37.1079 40.8777 37.0355 39.6534 36.6737C36.7152 35.8051 32.716 31.2453 31.0836 29.074L33.5321 26.9027C35.9806 28.3502 41.1225 31.8967 42.1019 34.5023Z" fill="#DEC585" stroke="#76563F" stroke-width="0.5" stroke-linecap="round" stroke-linejoin="round"/>
<path d="M46.4855 22.047C49.2556 23.2753 47.6397 24.606 46.4855 25.1178C43.7153 26.3461 37.2515 25.6295 34.3659 25.1177L34.3659 22.047C37.2515 21.5353 43.7153 20.8188 46.4855 22.047Z" fill="#DEC585" stroke="#76563F" stroke-width="0.5" stroke-linecap="round" stroke-linejoin="round"/>
<path d="M39.6535 10.4912C42.5917 9.62263 42.5101 11.5768 42.102 12.6625C41.1226 15.2681 35.9807 18.8146 33.5322 20.2621L31.0837 18.0908C32.716 15.9195 36.7153 11.3597 39.6535 10.4912Z" fill="#DEC585" stroke="#76563F" stroke-width="0.5" stroke-linecap="round" stroke-linejoin="round"/>
<path d="M21.3948 7.09784C19.1617 5.15259 18.3944 6.93269 18.2898 8.0659C18.0389 10.7856 21.0759 16.0022 22.6257 18.2705L25.7306 17.3024C25.2158 14.7114 23.6278 9.04309 21.3948 7.09784Z" fill="#E8CD88" stroke="#76563F" stroke-width="0.5" stroke-linecap="round" stroke-linejoin="round"/>
<path d="M9.7481 15.0087C6.66279 15.0056 7.5533 16.7876 8.38422 17.6789C10.3784 19.8182 16.6228 21.6946 19.4957 22.3655L20.8596 19.6953C18.4413 18.1344 12.8334 15.0119 9.7481 15.0087Z" fill="#E8CD88" stroke="#76563F" stroke-width="0.5" stroke-linecap="round" stroke-linejoin="round"/>
<path d="M7.89646 27.8066C5.83593 29.8152 7.89374 30.6553 9.18021 30.8243C12.2677 31.2298 17.9742 28.6554 20.4416 27.3175L19.1578 24.2999C16.2626 24.6319 9.95698 25.7981 7.89646 27.8066Z" fill="#E8CD88" stroke="#76563F" stroke-width="0.5" stroke-linecap="round" stroke-linejoin="round"/>
<path d="M16.822 38.2336C17.0069 40.9879 19.0877 40.3015 20.1051 39.614C22.5467 37.9639 24.4134 32.5033 25.0416 29.9793L21.7585 28.5988C20.036 30.6628 16.6371 35.4792 16.822 38.2336Z" fill="#E8CD88" stroke="#76563F" stroke-width="0.5" stroke-linecap="round" stroke-linejoin="round"/>
<path d="M34.658 39.0988C34.4071 41.8185 32.4835 40.8774 31.5531 40.0669C29.3201 38.1216 27.7321 32.4533 27.2172 29.8623L30.3221 28.8942C31.872 31.1625 34.9089 36.3791 34.658 39.0988Z" fill="#E8CD88" stroke="#76563F" stroke-width="0.5" stroke-linecap="round" stroke-linejoin="round"/>
<path d="M44.5635 29.4858C46.5578 31.6251 44.4852 32.1573 43.1997 32.156C40.1144 32.1528 34.5065 29.0303 32.0882 27.4694L33.4521 24.7992C36.325 25.47 42.5693 27.3465 44.5635 29.4858Z" fill="#E8CD88" stroke="#76563F" stroke-width="0.5" stroke-linecap="round" stroke-linejoin="round"/>
<path d="M43.7677 16.3404C46.8552 16.7459 45.91 18.5211 45.0514 19.358C42.9909 21.3666 36.6853 22.5328 33.7901 22.8648L32.5063 19.8472C34.9736 18.5093 40.6802 15.9349 43.7677 16.3404Z" fill="#E8CD88" stroke="#76563F" stroke-width="0.5" stroke-linecap="round" stroke-linejoin="round"/>
<path d="M32.8428 7.5507C35.2844 5.90065 36.0488 7.78346 36.1259 8.93113C36.3108 11.6855 32.9118 16.5019 31.1893 18.5658L27.9062 17.1854C28.5344 14.6614 30.4012 9.20074 32.8428 7.5507Z" fill="#E8CD88" stroke="#76563F" stroke-width="0.5" stroke-linecap="round" stroke-linejoin="round"/>
<path d="M35.1548 23.3648C35.1548 27.4391 31.42 30.7916 26.748 30.7916C22.076 30.7916 18.3412 27.4391 18.3412 23.3648C18.3412 19.2905 22.076 15.938 26.748 15.938C31.42 15.938 35.1548 19.2905 35.1548 23.3648Z" fill="#76563F" stroke="#76563F" stroke-width="0.5"/>
<path d="M32.9053 23.2829C32.9053 26.2427 30.1894 28.6916 26.7742 28.6916C23.3591 28.6916 20.6432 26.2427 20.6432 23.2829C20.6432 20.3232 23.3591 17.8743 26.7742 17.8743C30.1894 17.8743 32.9053 20.3232 32.9053 23.2829Z" fill="#A78268" stroke="#76563F" stroke-width="0.5"/>
<path d="M29.0709 6.60396C27.6858 4.14739 26.1853 5.58039 25.6082 6.60396C24.2231 9.06054 25.0311 14.7926 25.6082 17.3515H29.0709C29.648 14.7926 30.456 9.06054 29.0709 6.60396Z" fill="#DEC585" stroke="#76563F" stroke-width="0.5" stroke-linecap="round" stroke-linejoin="round"/>
<path d="M15.0257 10.4912C12.0875 9.62263 12.1691 11.5768 12.5772 12.6625C13.5566 15.2681 18.6985 18.8146 21.147 20.2621L23.5955 18.0908C21.9632 15.9195 17.9639 11.3597 15.0257 10.4912Z" fill="#DEC585" stroke="#76563F" stroke-width="0.5" stroke-linecap="round" stroke-linejoin="round"/>
<path d="M8.19362 22.047C5.42344 23.2753 7.03938 24.606 8.19362 25.1178C10.9638 26.3461 17.4276 25.6295 20.3132 25.1177L20.3132 22.047C17.4276 21.5353 10.9638 20.8188 8.19362 22.047Z" fill="#DEC585" stroke="#76563F" stroke-width="0.5" stroke-linecap="round" stroke-linejoin="round"/>
<path d="M12.5771 34.5023C11.5977 37.1079 13.8014 37.0355 15.0256 36.6737C17.9639 35.8051 21.9631 31.2453 23.5955 29.074L21.1469 26.9027C18.6984 28.3502 13.5565 31.8967 12.5771 34.5023Z" fill="#DEC585" stroke="#76563F" stroke-width="0.5" stroke-linecap="round" stroke-linejoin="round"/>
<path d="M29.0709 40.5609C27.6858 43.0174 26.1853 41.5844 25.6082 40.5609C24.2231 38.1043 25.0311 32.3723 25.6082 29.8133H29.0709C29.648 32.3723 30.456 38.1043 29.0709 40.5609Z" fill="#DEC585" stroke="#76563F" stroke-width="0.5" stroke-linecap="round" stroke-linejoin="round"/>
<path d="M42.1019 34.5023C43.0814 37.1079 40.8777 37.0355 39.6534 36.6737C36.7152 35.8051 32.716 31.2453 31.0836 29.074L33.5321 26.9027C35.9806 28.3502 41.1225 31.8967 42.1019 34.5023Z" fill="#DEC585" stroke="#76563F" stroke-width="0.5" stroke-linecap="round" stroke-linejoin="round"/>
<path d="M46.4855 22.047C49.2556 23.2753 47.6397 24.606 46.4855 25.1178C43.7153 26.3461 37.2515 25.6295 34.3659 25.1177L34.3659 22.047C37.2515 21.5353 43.7153 20.8188 46.4855 22.047Z" fill="#DEC585" stroke="#76563F" stroke-width="0.5" stroke-linecap="round" stroke-linejoin="round"/>
<path d="M39.6535 10.4912C42.5917 9.62263 42.5101 11.5768 42.102 12.6625C41.1226 15.2681 35.9807 18.8146 33.5322 20.2621L31.0837 18.0908C32.716 15.9195 36.7153 11.3597 39.6535 10.4912Z" fill="#DEC585" stroke="#76563F" stroke-width="0.5" stroke-linecap="round" stroke-linejoin="round"/>
<path d="M35.1547 23.3648C35.1547 27.4391 31.4199 30.7916 26.7479 30.7916C22.0758 30.7916 18.3411 27.4391 18.3411 23.3648C18.3411 19.2905 22.0758 15.938 26.7479 15.938C31.4199 15.938 35.1547 19.2905 35.1547 23.3648Z" fill="#76563F" stroke="#76563F" stroke-width="0.5"/>
<path d="M32.9051 23.2828C32.9051 26.2425 30.1893 28.6915 26.7741 28.6915C23.3589 28.6915 20.6431 26.2425 20.6431 23.2828C20.6431 20.3231 23.3589 17.8741 26.7741 17.8741C30.1893 17.8741 32.9051 20.3231 32.9051 23.2828Z" fill="#A78268" stroke="#76563F" stroke-width="0.5"/>
</svg>
