<svg width="167" height="231" viewBox="0 0 167 231" fill="none" xmlns="http://www.w3.org/2000/svg">
<path d="M165.895 26.7803C165.895 26.7803 160.349 57.4558 151.309 77.7326C130.584 124.222 64.7352 175.164 64.7352 175.164C64.7352 175.164 17.851 114.412 11.3332 66.6039C8.33354 44.6017 11.3332 9.74259 11.3332 9.74259C65.4297 -12.0657 136.914 12.0143 165.895 26.7803Z" fill="#BBAB71" stroke="#615B47" stroke-linecap="round" stroke-linejoin="round"/>
<path d="M56.2203 33.2326C24.6203 24.8326 19.0536 50.7326 20.2203 64.7326C26.0536 81.3992 40.1203 113.133 49.7203 106.733C61.7203 98.7326 74.7203 101.733 106.72 106.733C138.72 111.733 124.22 83.2326 141.22 77.2326C158.22 71.2326 126.22 36.7325 106.72 42.7325C87.2203 48.7325 95.7203 43.7326 56.2203 33.2326Z" fill="#7E9256"/>
<path d="M122.323 49.1321L140.471 55.8052L166.323 65.6353L75.097 159.066C95.5273 129.85 115.7 97.5111 131.121 71.6646L115.327 65.4186L122.323 49.1321Z" fill="#D9CB9B"/>
<path d="M35.7947 45.7592L55.4592 43L57.0736 60.1778L39.6718 62.3807C46.4217 90.6204 55.7615 126.291 66.3563 158.95L7 48.7416L35.7947 45.7592Z" fill="#D9CB9B"/>
<path d="M28.3776 202.075L66.3563 158.95L52.3005 196.571L47.6978 208.89L28.3776 202.075Z" fill="#D9CB9B"/>
<path d="M66.3563 158.95L75.097 159.066L65.457 198.667L52.3005 196.571L66.3563 158.95Z" fill="#D9CB9B"/>
<path d="M75.097 159.066L76.7555 205.482H63.798L65.457 198.667L75.097 159.066Z" fill="#D9CB9B"/>
<path d="M75.097 159.066L94.0722 202.075L76.999 212.297L76.7555 205.482L75.097 159.066Z" fill="#D9CB9B"/>
<path d="M76.999 57.3821L57.0736 60.1778L39.6718 62.3807C46.4217 90.6204 55.7615 126.291 66.3563 158.95L67.4201 71.8344L75.6077 70.6599L76.999 57.3821Z" fill="#D9CB9B"/>
<path d="M94.0722 71.8344C87.6194 70.3472 79.0739 70.4317 75.6077 70.6599L67.4201 71.8344L66.3563 158.95L75.097 159.066L99.6204 74.0684L94.0722 71.8344Z" fill="#D9CB9B"/>
<path d="M115.327 65.4186L96.9386 58.6571L94.0722 71.8344L99.6204 74.0684L75.097 159.066C95.5273 129.85 115.7 97.5111 131.121 71.6646L115.327 65.4186Z" fill="#D9CB9B"/>
<path d="M75.097 159.066C95.5273 129.85 115.7 97.5111 131.121 71.6646L115.327 65.4186M75.097 159.066L166.323 65.6353L140.471 55.8052L122.323 49.1321L115.327 65.4186M75.097 159.066L66.3563 158.95M75.097 159.066L94.0722 202.075L76.999 212.297L76.7555 205.482M75.097 159.066L76.7555 205.482M75.097 159.066L65.457 198.667M75.097 159.066L99.6204 74.0684L94.0722 71.8344M115.327 65.4186L96.9386 58.6571L94.0722 71.8344M66.3563 158.95C55.7615 126.291 46.4217 90.6204 39.6718 62.3807L57.0736 60.1778M66.3563 158.95L7 48.7416L35.7947 45.7592L55.4592 43L57.0736 60.1778M66.3563 158.95L28.3776 202.075L47.6978 208.89L52.3005 196.571M66.3563 158.95L52.3005 196.571M66.3563 158.95L67.4201 71.8344L75.6077 70.6599M57.0736 60.1778L76.999 57.3821L75.6077 70.6599M75.6077 70.6599C79.0739 70.4317 87.6194 70.3472 94.0722 71.8344M76.7555 205.482H63.798L65.457 198.667M65.457 198.667L52.3005 196.571" stroke="#615B47" stroke-linecap="round" stroke-linejoin="round"/>
</svg>
