<svg width="168" height="209" viewBox="0 0 168 209" fill="none" xmlns="http://www.w3.org/2000/svg">
<path d="M166.93 61.2892L161.789 63.0485L82.8198 90.0683C103.523 97.3492 125.71 102.722 147.201 103.7C159.992 84.5144 166.93 67.6845 166.93 61.2892Z" fill="#B1A2C0" stroke="#42364E" stroke-linecap="round" stroke-linejoin="round"/>
<path d="M0.651123 48.4985C26.8274 66.9525 94.172 103.861 154.14 103.861L64.9021 155.763L97.0275 200.744C59.9048 217.353 31.5868 203.051 22.0681 193.824L64.9021 155.763L32.7766 102.131L0.651123 48.4985Z" fill="#805CA5"/>
<path d="M64.9021 155.763L154.14 103.861C94.172 103.861 26.8274 66.9525 0.651123 48.4985L32.7766 102.131L64.9021 155.763ZM64.9021 155.763L22.0681 193.824C31.5868 203.051 59.9048 217.353 97.0275 200.744L64.9021 155.763Z" stroke="#42364E" stroke-linecap="round" stroke-linejoin="round"/>
</svg>
