<svg width="176" height="262" viewBox="0 0 176 262" fill="none" xmlns="http://www.w3.org/2000/svg">
<g filter="url(#filter0_d_334_3710)">
<path d="M171 96.5907L165.867 98.46L87.0308 127.17C107.7 134.906 129.849 140.615 151.304 141.655C164.073 121.269 171 103.386 171 96.5907Z" fill="#B1A2C0" stroke="#42364E" stroke-linecap="round" stroke-linejoin="round"/>
<path d="M5 83C31.1324 102.608 98.3638 141.825 158.231 141.825L69.1431 196.973L101.215 244.768C64.1542 262.416 35.8837 247.219 26.381 237.415L69.1431 196.973L37.0715 139.986L5 83Z" fill="#805CA5"/>
<path d="M69.1431 196.973L158.231 141.825C98.3638 141.825 31.1324 102.608 5 83L37.0715 139.986L69.1431 196.973ZM69.1431 196.973L26.381 237.415C35.8837 247.219 64.1542 262.416 101.215 244.768L69.1431 196.973Z" stroke="#42364E" stroke-linecap="round" stroke-linejoin="round"/>
</g>
<g filter="url(#filter1_d_334_3710)">
<path d="M86.7195 127L167.995 96.5806L104.174 1L7.995 84.5461C25.448 97.1047 54.3187 114.536 86.7195 127Z" fill="#B1A2C0" stroke="#42364E" stroke-linecap="round" stroke-linejoin="round"/>
<path d="M122.201 60.2823C147.37 66.9995 158.667 87.4498 161.427 98.6451L86.8094 126.791C58.5061 116.095 43.5826 106.526 17.8523 90.9812C11.7919 87.3199 53.5745 46.1016 78.0445 45.1687C82.2762 47.4078 97.0318 53.5652 122.201 60.2823Z" fill="#758672"/>
</g>
<defs>
<filter id="filter0_d_334_3710" x="0.5" y="82.5" width="175" height="178.884" filterUnits="userSpaceOnUse" color-interpolation-filters="sRGB">
<feFlood flood-opacity="0" result="BackgroundImageFix"/>
<feColorMatrix in="SourceAlpha" type="matrix" values="0 0 0 0 0 0 0 0 0 0 0 0 0 0 0 0 0 0 127 0" result="hardAlpha"/>
<feOffset dy="4"/>
<feGaussianBlur stdDeviation="2"/>
<feComposite in2="hardAlpha" operator="out"/>
<feColorMatrix type="matrix" values="0 0 0 0 0 0 0 0 0 0 0 0 0 0 0 0 0 0 0.25 0"/>
<feBlend mode="normal" in2="BackgroundImageFix" result="effect1_dropShadow_334_3710"/>
<feBlend mode="normal" in="SourceGraphic" in2="effect1_dropShadow_334_3710" result="shape"/>
</filter>
<filter id="filter1_d_334_3710" x="3.495" y="0.5" width="169" height="135" filterUnits="userSpaceOnUse" color-interpolation-filters="sRGB">
<feFlood flood-opacity="0" result="BackgroundImageFix"/>
<feColorMatrix in="SourceAlpha" type="matrix" values="0 0 0 0 0 0 0 0 0 0 0 0 0 0 0 0 0 0 127 0" result="hardAlpha"/>
<feOffset dy="4"/>
<feGaussianBlur stdDeviation="2"/>
<feComposite in2="hardAlpha" operator="out"/>
<feColorMatrix type="matrix" values="0 0 0 0 0 0 0 0 0 0 0 0 0 0 0 0 0 0 0.25 0"/>
<feBlend mode="normal" in2="BackgroundImageFix" result="effect1_dropShadow_334_3710"/>
<feBlend mode="normal" in="SourceGraphic" in2="effect1_dropShadow_334_3710" result="shape"/>
</filter>
</defs>
</svg>
