<svg width="165" height="230"  fill="none" xmlns="http://www.w3.org/2000/svg">
<path d="M116.323 45.2168L134.471 51.8899L160.323 61.72L69.097 155.151C89.5273 125.934 109.7 93.5958 125.121 67.7493L109.327 61.5034L116.323 45.2168Z" fill="#D9CB9B"/>
<path d="M29.7947 41.8439L49.4592 39.0847L51.0736 56.2626L33.6718 58.4655C40.4217 86.7051 49.7615 122.376 60.3563 155.035L1 44.8263L29.7947 41.8439Z" fill="#D9CB9B"/>
<path d="M22.3776 198.16L60.3563 155.035L46.3005 192.656L41.6978 204.975L22.3776 198.16Z" fill="#D9CB9B"/>
<path d="M60.3563 155.035L69.097 155.151L59.457 194.752L46.3005 192.656L60.3563 155.035Z" fill="#D9CB9B"/>
<path d="M69.097 155.151L70.7555 201.567H57.798L59.457 194.752L69.097 155.151Z" fill="#D9CB9B"/>
<path d="M69.097 155.151L88.0722 198.16L70.999 208.382L70.7555 201.567L69.097 155.151Z" fill="#D9CB9B"/>
<path d="M70.999 53.4668L51.0736 56.2626L33.6718 58.4655C40.4217 86.7051 49.7615 122.376 60.3563 155.035L61.4201 67.9192L69.6077 66.7446L70.999 53.4668Z" fill="#D9CB9B"/>
<path d="M88.0722 67.9192C81.6194 66.4319 73.0739 66.5164 69.6077 66.7446L61.4201 67.9192L60.3563 155.035L69.097 155.151L93.6204 70.1532L88.0722 67.9192Z" fill="#D9CB9B"/>
<path d="M109.327 61.5034L90.9386 54.7418L88.0722 67.9192L93.6204 70.1532L69.097 155.151C89.5273 125.934 109.7 93.5958 125.121 67.7493L109.327 61.5034Z" fill="#D9CB9B"/>
<path d="M69.097 155.151C89.5273 125.934 109.7 93.5958 125.121 67.7493L109.327 61.5034M69.097 155.151L160.323 61.72L134.471 51.8899L116.323 45.2168L109.327 61.5034M69.097 155.151L60.3563 155.035M69.097 155.151L88.0722 198.16L70.999 208.382L70.7555 201.567M69.097 155.151L70.7555 201.567M69.097 155.151L59.457 194.752M69.097 155.151L93.6204 70.1532L88.0722 67.9192M109.327 61.5034L90.9386 54.7418L88.0722 67.9192M60.3563 155.035C49.7615 122.376 40.4217 86.7051 33.6718 58.4655L51.0736 56.2626M60.3563 155.035L1 44.8263L29.7947 41.8439L49.4592 39.0847L51.0736 56.2626M60.3563 155.035L22.3776 198.16L41.6978 204.975L46.3005 192.656M60.3563 155.035L46.3005 192.656M60.3563 155.035L61.4201 67.9192L69.6077 66.7446M51.0736 56.2626L70.999 53.4668L69.6077 66.7446M69.6077 66.7446C73.0739 66.5164 81.6194 66.4319 88.0722 67.9192M70.7555 201.567H57.798L59.457 194.752M59.457 194.752L46.3005 192.656" stroke="#615B47" stroke-linecap="round" stroke-linejoin="round"/>
</svg>
