<svg width="186" height="232" viewBox="0 0 186 232" fill="none" xmlns="http://www.w3.org/2000/svg">
<path d="M180.07 44.7352L143.427 107.658L74.2848 148.439L23 88L1 22.593C76.7276 -25.0961 151.57 17.1374 180.07 44.7352Z" fill="#E1B493" stroke="#A78268" stroke-linecap="round" stroke-linejoin="round"/>
<path d="M142.18 69.0895C164.329 72.2044 145.265 91.0504 132.964 100.084C83.1216 141.062 43.7915 109.231 30.3568 88.1925C25.5403 74.6435 22.2163 44.6414 47.4526 33.026C78.9979 18.5066 76.0371 50.9688 91.4267 47.3252C106.816 43.6817 114.495 65.196 142.18 69.0895Z" fill="#5E7959"/>
<path d="M29.2911 88.6829L84.8881 172.461L158.694 107.805C158.694 107.805 133.588 119.34 126.343 103.025C119.099 86.7093 108.602 82.3078 93.9927 98.2441C79.3829 114.18 74.3447 116.153 61.6419 93.4635C48.9391 70.7736 29.2911 88.6829 29.2911 88.6829Z" fill="#E0CEC1" stroke="#A78268" stroke-linecap="round" stroke-linejoin="round"/>
<path d="M144.218 137.745L86.2008 177.486L113.683 224.759C112.645 224.009 111.627 223.343 110.629 222.755C94.0025 212.954 82.8878 224.477 78.5669 219.791C73.9866 214.824 69.4063 209.856 61.0091 217.307C55.5541 222.148 49.7768 219.651 46.3981 217.307C44.5759 216.043 43.4513 214.824 43.4513 214.824L86.2008 177.486L37.3442 121.186C37.3442 121.186 51.0851 136.089 64.0626 125.326C77.0402 114.563 83.1472 117.874 90.7811 129.465C98.4149 141.056 107.341 144.623 117.499 133.605C127.658 122.587 144.218 137.745 144.218 137.745Z" fill="#E0CEC1"/>
<path d="M86.2008 177.486L144.218 137.745C144.218 137.745 127.658 122.587 117.499 133.605C107.341 144.623 98.4149 141.056 90.7811 129.465C83.1472 117.874 77.0402 114.563 64.0626 125.326C51.0851 136.089 37.3442 121.186 37.3442 121.186L86.2008 177.486ZM86.2008 177.486L43.4513 214.824C43.4513 214.824 44.5759 216.043 46.3981 217.307C49.7768 219.651 55.5541 222.148 61.0091 217.307C69.4063 209.856 73.9866 214.824 78.5669 219.791C82.8878 224.477 94.0025 212.954 110.629 222.755C111.627 223.343 112.645 224.009 113.683 224.759L86.2008 177.486Z" stroke="#A78268" stroke-linecap="round" stroke-linejoin="round"/>
<path d="M61.0091 217.307C69.4063 209.856 73.9866 214.823 78.5669 219.791C82.8878 224.477 94.0024 212.954 110.629 222.755V231.382C110.629 231.382 101.468 231.382 97.2945 227.627C90.7395 221.728 86.2007 221.447 75.5133 226.415C64.826 231.382 64.826 221.447 56.4419 225.84C50.6231 228.889 40.3977 221.447 40.3977 221.447L46.3981 217.307C49.7768 219.651 55.554 222.148 61.0091 217.307Z" fill="#E1B493"/>
<path d="M43.4512 214.823C43.4512 214.823 44.5758 216.043 46.3981 217.307M113.682 224.759C112.645 224.009 111.627 223.343 110.629 222.755M46.3981 217.307C49.7768 219.651 55.554 222.148 61.0091 217.307C69.4063 209.856 73.9866 214.823 78.5669 219.791C82.8878 224.477 94.0024 212.954 110.629 222.755M46.3981 217.307L40.3977 221.447C40.3977 221.447 50.6231 228.889 56.4419 225.84C64.826 221.447 64.826 231.382 75.5133 226.415C86.2007 221.447 90.7395 221.728 97.2945 227.627C101.468 231.382 110.629 231.382 110.629 231.382V222.755" stroke="#A78268" stroke-linecap="round" stroke-linejoin="round"/>
</svg>
