<svg width="168" height="230" viewBox="0 0 168 230" fill="none" xmlns="http://www.w3.org/2000/svg">
<path d="M63.0721 173.419C63.0721 173.419 157.806 158.138 167.279 42C132.543 42 110.439 57.2813 73.715 90.9001C50.441 112.206 31.4942 118.406 6.23198 124.519C11.1956 136.529 31.4943 167.306 47.2832 173.419C49.4346 174.198 55.6042 175.288 63.0721 173.419Z" fill="#F30895"/>
<path d="M3.0742 42C-0.0835843 90.9001 -0.0835662 109.238 6.23198 124.519C31.4942 118.406 50.441 112.206 73.715 90.9001C59.4933 90.9001 20.6954 58.3 3.0742 42Z" fill="#F30895"/>
<path fill-rule="evenodd" clip-rule="evenodd" d="M47.2832 173.419C40.9676 186.663 31.1574 207.165 16 214.5C-2.94671 223.669 82.0188 234.544 85.1766 222.319C88.3344 210.094 63.0721 173.419 63.0721 173.419C63.0721 173.419 157.806 158.138 167.279 42C132.543 42 110.439 57.2813 73.715 90.9001C59.4933 90.9001 20.6954 58.3 3.0742 42C-0.0835843 90.9001 -0.0835662 109.238 6.23198 124.519C11.1956 136.529 31.4943 167.306 47.2832 173.419Z" fill="#F30895"/>
<path d="M47.2832 173.419C31.4943 167.306 11.1956 136.529 6.23198 124.519M47.2832 173.419C49.4346 174.198 55.6042 175.288 63.0721 173.419M47.2832 173.419C40.9676 186.663 31.1574 207.165 16 214.5C-2.94671 223.669 82.0188 234.544 85.1766 222.319C88.3344 210.094 63.0721 173.419 63.0721 173.419M47.2832 173.419C49.9346 174.049 56.8042 174.931 63.0721 173.419M63.0721 173.419C63.0721 173.419 157.806 158.138 167.279 42C132.543 42 110.439 57.2813 73.715 90.9001M6.23198 124.519C-0.0835662 109.238 -0.0835843 90.9001 3.0742 42C20.6954 58.3 59.4933 90.9001 73.715 90.9001M6.23198 124.519C31.4942 118.406 50.441 112.206 73.715 90.9001" stroke="#DC0707" stroke-linecap="round" stroke-linejoin="round"/>
</svg>
