<svg width="168" height="246" viewBox="0 0 168 246" fill="none" xmlns="http://www.w3.org/2000/svg">
<path d="M72.4131 143.772C109.538 90.8816 131.885 66.8405 167 66.8405C100.6 -52.403 28.6667 17.1557 1 66.8405C18.8139 92.4843 58.0359 143.772 72.4131 143.772Z" fill="#CF83B1" stroke="#A56A8D" stroke-linecap="round" stroke-linejoin="round"/>
<path d="M71.9893 155C59.1649 149.678 32.2682 135.674 13.234 91.9814C-10.5586 37.3652 58.5291 58.8715 78.0311 86.9399C89.6951 103.727 76.0674 27.4409 138.616 79.2158C138.686 79.2621 138.751 79.316 138.811 79.3776C138.746 79.3236 138.681 79.2696 138.616 79.2158C132.598 75.2246 91.8394 127.867 71.9893 155Z" fill="#738D6F"/>
<path d="M63.0725 191.628C63.0725 191.628 157.807 176.555 167.28 62C132.544 62 110.439 77.073 73.7154 110.234C50.4412 131.25 31.4944 137.365 6.232 143.394C11.1957 155.241 31.4945 185.599 47.2835 191.628C49.4348 192.396 55.6045 193.471 63.0725 191.628Z" fill="#ECB8D7"/>
<path d="M3.07421 62C-0.0835903 110.234 -0.0835724 128.321 6.232 143.394C31.4944 137.365 50.4412 131.25 73.7154 110.234C59.4936 110.234 20.6955 78.0779 3.07421 62Z" fill="#ECB8D7"/>
<path fill-rule="evenodd" clip-rule="evenodd" d="M47.2835 191.628C40.9679 204.691 31.1575 224.914 16.0001 232.149C-2.94674 241.193 82.0193 251.92 85.1771 239.862C88.3349 227.803 63.0725 191.628 63.0725 191.628C63.0725 191.628 157.807 176.555 167.28 62C132.544 62 110.439 77.073 73.7154 110.234C59.4936 110.234 20.6955 78.0779 3.07421 62C-0.0835903 110.234 -0.0835724 128.321 6.232 143.394C11.1957 155.241 31.4945 185.599 47.2835 191.628Z" fill="#ECB8D7"/>
<path d="M47.2835 191.628C31.4945 185.599 11.1957 155.241 6.232 143.394M47.2835 191.628C49.4348 192.396 55.6045 193.471 63.0725 191.628M47.2835 191.628C40.9679 204.691 31.1575 224.914 16.0001 232.149C-2.94674 241.193 82.0193 251.92 85.1771 239.862C88.3349 227.803 63.0725 191.628 63.0725 191.628M47.2835 191.628C49.9348 192.25 56.8045 193.12 63.0725 191.628M63.0725 191.628C63.0725 191.628 157.807 176.555 167.28 62C132.544 62 110.439 77.073 73.7154 110.234M6.232 143.394C-0.0835724 128.321 -0.0835903 110.234 3.07421 62C20.6955 78.0779 59.4936 110.234 73.7154 110.234M6.232 143.394C31.4944 137.365 50.4412 131.25 73.7154 110.234" stroke="#A56A8D" stroke-linecap="round" stroke-linejoin="round"/>
</svg>
