<svg width="165" height="209" viewBox="0 0 165 209" fill="none" xmlns="http://www.w3.org/2000/svg">
<path d="M8.29107 65.6829L63.8881 149.461L137.694 84.8053C137.694 84.8053 112.588 96.3401 105.343 80.0247C98.0994 63.7093 87.6025 59.3078 72.9927 75.2441C58.3829 91.1804 53.3447 93.1534 40.6419 70.4635C27.9391 47.7736 8.29107 65.6829 8.29107 65.6829Z" fill="#E0CEC1" stroke="#A78268" stroke-linecap="round" stroke-linejoin="round"/>
<path d="M123.218 114.745L65.2008 154.486L92.6826 201.759C91.645 201.009 90.6271 200.343 89.629 199.755C73.0025 189.954 61.8878 201.477 57.5669 196.791C52.9866 191.824 48.4063 186.856 40.0091 194.307C34.5541 199.148 28.7768 196.651 25.3981 194.307C23.5759 193.043 22.4513 191.824 22.4513 191.824L65.2008 154.486L16.3442 98.186C16.3442 98.186 30.0851 113.089 43.0626 102.326C56.0402 91.5625 62.1472 94.8743 69.7811 106.465C77.4149 118.056 86.3408 121.623 96.4995 110.605C106.658 99.5873 123.218 114.745 123.218 114.745Z" fill="#E0CEC1"/>
<path d="M65.2008 154.486L123.218 114.745C123.218 114.745 106.658 99.5873 96.4995 110.605C86.3408 121.623 77.4149 118.056 69.7811 106.465C62.1472 94.8743 56.0402 91.5625 43.0626 102.326C30.0851 113.089 16.3442 98.186 16.3442 98.186L65.2008 154.486ZM65.2008 154.486L22.4513 191.824C22.4513 191.824 23.5759 193.043 25.3981 194.307C28.7768 196.651 34.5541 199.148 40.0091 194.307C48.4063 186.856 52.9866 191.824 57.5669 196.791C61.8878 201.477 73.0025 189.954 89.629 199.755C90.6271 200.343 91.645 201.009 92.6826 201.759L65.2008 154.486Z" stroke="#A78268" stroke-linecap="round" stroke-linejoin="round"/>
<path d="M40.0091 194.307C48.4063 186.856 52.9866 191.823 57.5669 196.791C61.8878 201.477 73.0024 189.954 89.629 199.755V208.382C89.629 208.382 80.4684 208.382 76.2945 204.627C69.7395 198.728 65.2007 198.447 54.5133 203.415C43.826 208.382 43.826 198.447 35.4419 202.84C29.6231 205.889 19.3977 198.447 19.3977 198.447L25.3981 194.307C28.7768 196.651 34.554 199.148 40.0091 194.307Z" fill="#E1B493"/>
<path d="M22.4512 191.823C22.4512 191.823 23.5758 193.043 25.3981 194.307M92.6825 201.759C91.645 201.009 90.627 200.343 89.629 199.755M25.3981 194.307C28.7768 196.651 34.554 199.148 40.0091 194.307C48.4063 186.856 52.9866 191.823 57.5669 196.791C61.8878 201.477 73.0024 189.954 89.629 199.755M25.3981 194.307L19.3977 198.447C19.3977 198.447 29.6231 205.889 35.4419 202.84C43.826 198.447 43.826 208.382 54.5133 203.415C65.2007 198.447 69.7395 198.728 76.2945 204.627C80.4684 208.382 89.629 208.382 89.629 208.382V199.755" stroke="#A78268" stroke-linecap="round" stroke-linejoin="round"/>
</svg>
