<svg width="165" height="230" fill="none" xmlns="http://www.w3.org/2000/svg">
<path d="M165.895 26.7803C165.895 26.7803 160.349 57.4558 151.309 77.7326C130.584 124.222 64.7352 175.164 64.7352 175.164C64.7352 175.164 17.851 114.412 11.3332 66.6039C8.33354 44.6017 11.3332 9.74259 11.3332 9.74259C65.4297 -12.0657 136.914 12.0143 165.895 26.7803Z" fill="#BBAB71" stroke="#615B47" stroke-linecap="round" stroke-linejoin="round"/>
<path d="M56.2203 33.2326C24.6203 24.8326 19.0536 50.7326 20.2203 64.7326C26.0536 81.3992 40.1203 113.133 49.7203 106.733C61.7203 98.7326 74.7203 101.733 106.72 106.733C138.72 111.733 124.22 83.2326 141.22 77.2326C158.22 71.2326 126.22 36.7325 106.72 42.7325C87.2203 48.7325 95.7203 43.7326 56.2203 33.2326Z" fill="#7E9256"/>
</svg>
