<svg width="166" height="231" viewBox="0 0 166 231" fill="none" xmlns="http://www.w3.org/2000/svg">
<path d="M71.6408 91.7505C108.365 58.1317 130.469 42.8504 165.205 42.8504C99.5229 -32.9447 28.3675 11.2691 1 42.8504C18.6212 59.1504 57.4191 91.7505 71.6408 91.7505Z" fill="#DA1B8E" stroke="#A56A8D" stroke-linecap="round" stroke-linejoin="round"/>
<path d="M71.3328 92.2325C58.6661 89.0659 32.1003 80.7326 13.3003 54.7326C-10.1997 22.2326 58.0382 35.0301 77.3003 51.7326C88.8208 61.7222 75.3607 16.3269 137.14 47.1363C137.209 47.1638 137.273 47.1959 137.333 47.2326C137.268 47.2004 137.204 47.1683 137.14 47.1363C131.196 44.7613 90.9387 76.0865 71.3328 92.2325Z" fill="#738D6F"/>
</svg>
